# xmcd
#
# Track frame offsets: 
#        150
#        18277
#        34718
#        51452
#        68163
#        92436
#        113696
#        137583
#        153158
#        170387
#        185239
#        206063
#        222955
#
# Disc length: 3212 seconds
#
# Revision: 9
# Processed by: cddbd v1.5.2PL0 Copyright (c) Steve Scherf et al.
# Submitted via: ExactAudioCopy v1.5
#
DISCID=b10c8a0d
DTITLE=Hozier - Hozier CD1 [Limited 2CD]
DYEAR=2014
DGENRE=White Soul Rock
TTITLE0=Take Me To Church
TTITLE1=Angel Of Small Death and The Codeine Scene
TTITLE2=Jackie And Wilson
TTITLE3=Someone New
TTITLE4=To Be Alone
TTITLE5=From Eden
TTITLE6=In A Week (Feat. Karen Cowley)
TTITLE7=Sedated
TTITLE8=Work Song
TTITLE9=Like Real People Do
TTITLE10=It Will Come Back
TTITLE11=Foreigner's God
TTITLE12=Cherry Wine (Live)
EXTD=YEAR: 2014
EXTT0=
EXTT1=
EXTT2=
EXTT3=
EXTT4=
EXTT5=
EXTT6=
EXTT7=
EXTT8=
EXTT9=
EXTT10=
EXTT11=
EXTT12=
PLAYORDER=
